<svg class="border shadow-md" viewBox="0 0 1413.28 706.64" style="width: 1413.28px; height: 706.64px;" xmlns="http://www.w3.org/2000/svg" preserveAspectRatio="none"><rect class="bg" id="bg" x="0" y="0" width="1413.28" height="706.64" fill="#97c2ff"/><line opacity="0.8" x1="0" y1="-115" x2="104" y2="-11" stroke-linecap="round" stroke="#F7B801" stroke-width="16"/><line opacity="0.8" x1="0" y1="197" x2="103" y2="300" stroke-linecap="round" stroke="#F7B801" stroke-width="36"/><line opacity="0.8" x1="0" y1="471" x2="112.5" y2="583.5" stroke-linecap="round" stroke="#3D348B" stroke-width="30"/><line opacity="0.8" x1="64.24" y1="97" x2="165.24" y2="198" stroke-linecap="round" stroke="#F18701" stroke-width="32"/><line opacity="0.8" x1="64.24" y1="355.0311111111111" x2="158.24" y2="449.0311111111111" stroke-linecap="round" stroke="#F18701" stroke-width="16"/><line opacity="0.8" x1="64.24" y1="606.0622222222222" x2="177.24" y2="719.0622222222222" stroke-linecap="round" stroke="#F35B04" stroke-width="20"/><line opacity="0.8" x1="128.48" y1="66" x2="167.73777777777775" y2="105.25777777777778" stroke-linecap="round" stroke="#7678ED" stroke-width="16"/><line opacity="0.8" x1="128.48" y1="183.7733333333333" x2="176.48" y2="231.7733333333333" stroke-linecap="round" stroke="#3D348B" stroke-width="16"/><line opacity="0.8" x1="128.48" y1="310.2888888888889" x2="184.48" y2="366.2888888888889" stroke-linecap="round" stroke="#7678ED" stroke-width="16"/><line opacity="0.8" x1="128.48" y1="444.80444444444447" x2="167.73777777777775" y2="484.06222222222226" stroke-linecap="round" stroke="#F18701" stroke-width="16"/><line opacity="0.8" x1="128.48" y1="562.5777777777778" x2="167.73777777777775" y2="601.8355555555555" stroke-linecap="round" stroke="#F35B04" stroke-width="27"/><line opacity="0.8" x1="128.48" y1="680.3511111111111" x2="167.73777777777775" y2="719.6088888888888" stroke-linecap="round" stroke="#F35B04" stroke-width="16"/><line opacity="0.8" x1="192.71999999999997" y1="98" x2="271.2355555555555" y2="176.51555555555555" stroke-linecap="round" stroke="#F7B801" stroke-width="37"/><line opacity="0.8" x1="192.71999999999997" y1="333.5466666666666" x2="305.71999999999997" y2="446.5466666666666" stroke-linecap="round" stroke="#F35B04" stroke-width="16"/><line opacity="0.8" x1="192.71999999999997" y1="669.5466666666666" x2="271.2355555555555" y2="748.0622222222222" stroke-linecap="round" stroke="#F35B04" stroke-width="28"/><line opacity="0.8" x1="256.96" y1="-34" x2="400.96" y2="110" stroke-linecap="round" stroke="#F35B04" stroke-width="16"/><line opacity="0.8" x1="256.96" y1="267.0311111111111" x2="335.4755555555555" y2="345.5466666666666" stroke-linecap="round" stroke="#7678ED" stroke-width="25"/><line opacity="0.8" x1="256.96" y1="502.5777777777778" x2="343.46" y2="589.0777777777778" stroke-linecap="round" stroke="#F18701" stroke-width="29"/><line opacity="0.8" x1="321.2" y1="65" x2="386.7" y2="130.5" stroke-linecap="round" stroke="#7678ED" stroke-width="16"/><line opacity="0.8" x1="321.2" y1="261.5" x2="408.2" y2="348.5" stroke-linecap="round" stroke="#F18701" stroke-width="22"/><line opacity="0.8" x1="321.2" y1="466.2733333333333" x2="380.08666666666664" y2="525.16" stroke-linecap="round" stroke="#3D348B" stroke-width="26"/><line opacity="0.8" x1="321.2" y1="642.9333333333333" x2="380.08666666666664" y2="701.8199999999999" stroke-linecap="round" stroke="#F18701" stroke-width="36"/><line opacity="0.8" x1="385.43999999999994" y1="16" x2="432.54933333333327" y2="63.10933333333333" stroke-linecap="round" stroke="#7678ED" stroke-width="31"/><line opacity="0.8" x1="385.43999999999994" y1="157.328" x2="432.54933333333327" y2="204.43733333333333" stroke-linecap="round" stroke="#F35B04" stroke-width="16"/><line opacity="0.8" x1="385.43999999999994" y1="298.656" x2="435.43999999999994" y2="348.656" stroke-linecap="round" stroke="#7678ED" stroke-width="16"/><line opacity="0.8" x1="385.43999999999994" y1="448.656" x2="442.43999999999994" y2="505.656" stroke-linecap="round" stroke="#F7B801" stroke-width="18"/><line opacity="0.8" x1="385.43999999999994" y1="618.656" x2="440.43999999999994" y2="673.656" stroke-linecap="round" stroke="#7678ED" stroke-width="26"/><line opacity="0.8" x1="449.67999999999995" y1="-66" x2="525.68" y2="10" stroke-linecap="round" stroke="#F18701" stroke-width="30"/><line opacity="0.8" x1="449.67999999999995" y1="108" x2="517.68" y2="176" stroke-linecap="round" stroke="#F35B04" stroke-width="22"/><line opacity="0.8" x1="449.67999999999995" y1="312" x2="496.7893333333333" y2="359.1093333333333" stroke-linecap="round" stroke="#F18701" stroke-width="21"/><line opacity="0.8" x1="449.67999999999995" y1="453.328" x2="540.68" y2="544.328" stroke-linecap="round" stroke="#3D348B" stroke-width="24"/><line opacity="0.8" x1="449.67999999999995" y1="638.5466666666666" x2="496.7893333333333" y2="685.656" stroke-linecap="round" stroke="#3D348B" stroke-width="16"/><line opacity="0.8" x1="513.92" y1="-22" x2="592.4355555555555" y2="56.51555555555555" stroke-linecap="round" stroke="#F7B801" stroke-width="32"/><line opacity="0.8" x1="513.92" y1="213.54666666666665" x2="592.4355555555555" y2="292.0622222222222" stroke-linecap="round" stroke="#F35B04" stroke-width="20"/><line opacity="0.8" x1="513.92" y1="449.0933333333333" x2="614.42" y2="549.5933333333332" stroke-linecap="round" stroke="#F35B04" stroke-width="16"/><line opacity="0.8" x1="578.16" y1="-30" x2="666.66" y2="58.5" stroke-linecap="round" stroke="#7678ED" stroke-width="19"/><line opacity="0.8" x1="578.16" y1="235.5" x2="656.6755555555555" y2="314.0155555555556" stroke-linecap="round" stroke="#F7B801" stroke-width="16"/><line opacity="0.8" x1="578.16" y1="471.0466666666666" x2="656.6755555555555" y2="549.5622222222222" stroke-linecap="round" stroke="#7678ED" stroke-width="16"/><line opacity="0.8" x1="642.4" y1="48" x2="720.9155555555556" y2="126.51555555555555" stroke-linecap="round" stroke="#F18701" stroke-width="27"/><line opacity="0.8" x1="642.4" y1="283.5466666666666" x2="746.4" y2="387.5466666666666" stroke-linecap="round" stroke="#7678ED" stroke-width="22"/><line opacity="0.8" x1="642.4" y1="584.5466666666666" x2="775.4" y2="717.5466666666666" stroke-linecap="round" stroke="#F35B04" stroke-width="16"/><line opacity="0.8" x1="706.64" y1="-16" x2="838.64" y2="116" stroke-linecap="round" stroke="#F7B801" stroke-width="16"/><line opacity="0.8" x1="706.64" y1="334" x2="895.64" y2="523" stroke-linecap="round" stroke="#F18701" stroke-width="26"/><line opacity="0.8" x1="706.64" y1="757" x2="833.64" y2="884" stroke-linecap="round" stroke="#3D348B" stroke-width="22"/><line opacity="0.8" x1="770.8799999999999" y1="32" x2="814.3799999999999" y2="75.5" stroke-linecap="round" stroke="#F7B801" stroke-width="16"/><line opacity="0.8" x1="770.8799999999999" y1="162.5" x2="827.8799999999999" y2="219.5" stroke-linecap="round" stroke="#F35B04" stroke-width="31"/><line opacity="0.8" x1="770.8799999999999" y1="286.7990476190476" x2="810.8799999999999" y2="326.7990476190476" stroke-linecap="round" stroke="#7678ED" stroke-width="35"/><line opacity="0.8" x1="770.8799999999999" y1="406.7990476190476" x2="819.8799999999999" y2="455.7990476190476" stroke-linecap="round" stroke="#F35B04" stroke-width="24"/><line opacity="0.8" x1="770.8799999999999" y1="553.7990476190475" x2="817.8799999999999" y2="600.7990476190475" stroke-linecap="round" stroke="#F35B04" stroke-width="16"/><line opacity="0.8" x1="770.8799999999999" y1="668.0980952380952" x2="804.5295238095237" y2="701.747619047619" stroke-linecap="round" stroke="#7678ED" stroke-width="16"/><line opacity="0.8" x1="770.8799999999999" y1="769.0466666666666" x2="804.5295238095237" y2="802.6961904761904" stroke-linecap="round" stroke="#3D348B" stroke-width="32"/><line opacity="0.8" x1="835.1199999999999" y1="110" x2="882.2293333333332" y2="157.10933333333332" stroke-linecap="round" stroke="#F35B04" stroke-width="26"/><line opacity="0.8" x1="835.1199999999999" y1="251.328" x2="907.1199999999999" y2="323.328" stroke-linecap="round" stroke="#F35B04" stroke-width="16"/><line opacity="0.8" x1="835.1199999999999" y1="431.328" x2="900.1199999999999" y2="496.328" stroke-linecap="round" stroke="#3D348B" stroke-width="16"/><line opacity="0.8" x1="835.1199999999999" y1="626.328" x2="891.1199999999999" y2="682.328" stroke-linecap="round" stroke="#F18701" stroke-width="16"/><line opacity="0.8" x1="835.1199999999999" y1="776.5466666666666" x2="929.1199999999999" y2="870.5466666666666" stroke-linecap="round" stroke="#7678ED" stroke-width="16"/><line opacity="0.8" x1="899.3599999999999" y1="39" x2="989.3599999999999" y2="129" stroke-linecap="round" stroke="#F35B04" stroke-width="16"/><line opacity="0.8" x1="899.3599999999999" y1="276" x2="958.2466666666666" y2="334.88666666666666" stroke-linecap="round" stroke="#F18701" stroke-width="16"/><line opacity="0.8" x1="899.3599999999999" y1="452.65999999999997" x2="970.3599999999999" y2="523.66" stroke-linecap="round" stroke="#7678ED" stroke-width="16"/><line opacity="0.8" x1="899.3599999999999" y1="641.4333333333333" x2="984.3599999999999" y2="726.4333333333333" stroke-linecap="round" stroke="#F35B04" stroke-width="30"/><line opacity="0.8" x1="963.5999999999999" y1="42" x2="1042.1155555555554" y2="120.51555555555555" stroke-linecap="round" stroke="#7678ED" stroke-width="16"/><line opacity="0.8" x1="963.5999999999999" y1="277.5466666666666" x2="1089.6" y2="403.5466666666666" stroke-linecap="round" stroke="#3D348B" stroke-width="16"/><line opacity="0.8" x1="963.5999999999999" y1="576.5466666666666" x2="1067.6" y2="680.5466666666666" stroke-linecap="round" stroke="#F18701" stroke-width="31"/><line opacity="0.8" x1="1027.84" y1="92" x2="1139.84" y2="204" stroke-linecap="round" stroke="#3D348B" stroke-width="28"/><line opacity="0.8" x1="1027.84" y1="361.0311111111111" x2="1244.84" y2="578.0311111111112" stroke-linecap="round" stroke="#F7B801" stroke-width="37"/><line opacity="0.8" x1="1027.84" y1="800.0311111111112" x2="1110.84" y2="883.0311111111112" stroke-linecap="round" stroke="#F35B04" stroke-width="16"/><line opacity="0.8" x1="1092.08" y1="88" x2="1170.5955555555554" y2="166.51555555555555" stroke-linecap="round" stroke="#7678ED" stroke-width="39"/><line opacity="0.8" x1="1092.08" y1="323.5466666666666" x2="1181.08" y2="412.5466666666666" stroke-linecap="round" stroke="#F18701" stroke-width="16"/><line opacity="0.8" x1="1092.08" y1="569.5777777777778" x2="1203.08" y2="680.5777777777778" stroke-linecap="round" stroke="#F35B04" stroke-width="21"/><line opacity="0.8" x1="1156.32" y1="51" x2="1220.32" y2="115" stroke-linecap="round" stroke="#3D348B" stroke-width="37"/><line opacity="0.8" x1="1156.32" y1="232.7733333333333" x2="1215.2066666666667" y2="291.65999999999997" stroke-linecap="round" stroke="#3D348B" stroke-width="16"/><line opacity="0.8" x1="1156.32" y1="409.4333333333333" x2="1215.2066666666667" y2="468.31999999999994" stroke-linecap="round" stroke="#F35B04" stroke-width="16"/><line opacity="0.8" x1="1156.32" y1="586.0933333333332" x2="1248.32" y2="678.0933333333332" stroke-linecap="round" stroke="#7678ED" stroke-width="21"/><line opacity="0.8" x1="1220.56" y1="-87" x2="1295.56" y2="-12" stroke-linecap="round" stroke="#3D348B" stroke-width="34"/><line opacity="0.8" x1="1220.56" y1="105.77333333333331" x2="1279.4466666666667" y2="164.65999999999997" stroke-linecap="round" stroke="#F7B801" stroke-width="29"/><line opacity="0.8" x1="1220.56" y1="282.4333333333333" x2="1279.4466666666667" y2="341.31999999999994" stroke-linecap="round" stroke="#F18701" stroke-width="16"/><line opacity="0.8" x1="1220.56" y1="459.09333333333325" x2="1331.56" y2="570.0933333333332" stroke-linecap="round" stroke="#F18701" stroke-width="16"/><line opacity="0.8" x1="1284.8" y1="62" x2="1318.4495238095237" y2="95.6495238095238" stroke-linecap="round" stroke="#7678ED" stroke-width="16"/><line opacity="0.8" x1="1284.8" y1="162.94857142857143" x2="1334.8" y2="212.94857142857143" stroke-linecap="round" stroke="#F18701" stroke-width="16"/><line opacity="0.8" x1="1284.8" y1="312.9485714285714" x2="1328.8" y2="356.9485714285714" stroke-linecap="round" stroke="#F7B801" stroke-width="16"/><line opacity="0.8" x1="1284.8" y1="437.9485714285714" x2="1318.4495238095237" y2="471.59809523809525" stroke-linecap="round" stroke="#F7B801" stroke-width="39"/><line opacity="0.8" x1="1284.8" y1="538.8971428571429" x2="1323.8" y2="577.8971428571429" stroke-linecap="round" stroke="#7678ED" stroke-width="23"/><line opacity="0.8" x1="1284.8" y1="645.1961904761905" x2="1344.8" y2="705.1961904761905" stroke-linecap="round" stroke="#7678ED" stroke-width="33"/><line opacity="0.8" x1="1284.8" y1="772.4952380952382" x2="1318.4495238095237" y2="806.1447619047619" stroke-linecap="round" stroke="#7678ED" stroke-width="28"/><line opacity="0.8" x1="1349.04" y1="16" x2="1411.54" y2="78.5" stroke-linecap="round" stroke="#F35B04" stroke-width="16"/><line opacity="0.8" x1="1349.04" y1="203.5" x2="1396.1493333333333" y2="250.60933333333332" stroke-linecap="round" stroke="#F18701" stroke-width="16"/><line opacity="0.8" x1="1349.04" y1="344.828" x2="1396.1493333333333" y2="391.9373333333333" stroke-linecap="round" stroke="#F7B801" stroke-width="29"/><line opacity="0.8" x1="1349.04" y1="486.15599999999995" x2="1396.1493333333333" y2="533.2653333333333" stroke-linecap="round" stroke="#3D348B" stroke-width="19"/><line opacity="0.8" x1="1349.04" y1="627.4839999999999" x2="1396.1493333333333" y2="674.5933333333332" stroke-linecap="round" stroke="#7678ED" stroke-width="31"/></svg>